<svg width="42" height="42" viewBox="0 0 42 42" fill="none" xmlns="http://www.w3.org/2000/svg">
<path d="M12.826 23.5662C12.5679 23.6415 12.3153 23.7345 12.0701 23.8447C11.4441 24.1059 10.891 24.5155 10.4588 25.0383C10.0273 25.6112 9.79655 26.3103 9.80235 27.0276V31.5233C9.79655 32.2405 10.0273 32.9397 10.4588 33.5126C10.891 34.0353 11.4441 34.445 12.0701 34.7061C12.312 34.8243 12.5653 34.9176 12.826 34.9846C13.3457 35.1162 13.882 35.1698 14.4174 35.1437H15.2927V23.4071H14.4174C13.882 23.381 13.3457 23.4347 12.826 23.5662Z" stroke="white" stroke-width="2.5" stroke-miterlimit="10"/>
<path d="M28.0769 35.6571C28.3389 35.594 28.5926 35.5005 28.8328 35.3786C29.4589 35.1175 30.0119 34.7078 30.4441 34.185C30.884 33.6165 31.1157 32.9144 31.1006 32.1958V27.7C31.1157 26.9814 30.884 26.2793 30.4441 25.7108C30.0119 25.188 29.4589 24.7784 28.8328 24.5172C28.5889 24.4038 28.3361 24.3106 28.0769 24.2387C27.5642 24.1061 27.0343 24.0525 26.5054 24.0796H25.6102V35.8162H26.5054C27.0343 35.8433 27.5642 35.7897 28.0769 35.6571Z" stroke="white" stroke-width="2.5" stroke-miterlimit="10"/>
<path d="M35.0923 30.7237V19.4645C34.9626 15.6986 33.3438 12.1381 30.5913 9.56466C27.8389 6.99121 24.1777 5.61515 20.4116 5.7386C16.6455 5.61515 12.9843 6.99121 10.2318 9.56466C7.47937 12.1381 5.86056 15.6986 5.73083 19.4645V30.7237" stroke="white" stroke-width="2.5" stroke-miterlimit="10"/>
</svg>
