<svg width="19" height="19" viewBox="0 0 19 19" fill="none" xmlns="http://www.w3.org/2000/svg">
<path d="M12.3133 11.3587L10.4932 13.1541C9.54411 12.5818 8.66241 11.9046 7.86476 11.1351C7.09649 10.3361 6.41936 9.4543 5.84581 8.50581L7.63949 6.68578C7.74812 6.57546 7.82149 6.43532 7.85025 6.28319C7.87901 6.13106 7.86187 5.97381 7.801 5.83145L5.93082 1.47221C5.85693 1.30032 5.72376 1.1607 5.55555 1.07878C5.38734 0.996862 5.1953 0.978101 5.01442 1.02592L1.58518 1.93296C1.41393 1.97735 1.26282 2.07856 1.15657 2.22001C1.05033 2.36147 0.995239 2.5348 1.00032 2.71163C1.21852 6.70004 2.87684 10.4737 5.66729 13.3317C8.52585 16.1231 12.3005 17.7817 16.2899 17.9996C16.467 18.0055 16.6407 17.9509 16.7824 17.8447C16.9242 17.7385 17.0254 17.5871 17.0695 17.4156L17.9757 13.9846C18.0237 13.8038 18.0052 13.6118 17.9234 13.4436C17.8416 13.2753 17.7021 13.1421 17.5302 13.0682L13.1701 11.1989C13.0276 11.1371 12.8699 11.1194 12.7173 11.1478C12.5646 11.1763 12.4239 11.2497 12.3133 11.3587V11.3587Z" stroke="#212121" stroke-miterlimit="10" stroke-linecap="square"/>
</svg>
