<svg width="23" height="23" viewBox="0 0 23 23" fill="none" xmlns="http://www.w3.org/2000/svg">
<path d="M13.2092 1C15.5407 1 17.7767 1.92617 19.4252 3.57476C21.0738 5.22335 22 7.45932 22 9.79077" stroke="white" stroke-width="2" stroke-miterlimit="10" stroke-linecap="round"/>
<path d="M13.2092 4.90698C14.5045 4.90698 15.7467 5.42152 16.6626 6.3374C17.5785 7.25329 18.093 8.49549 18.093 9.79075" stroke="white" stroke-width="2" stroke-miterlimit="10" stroke-linecap="round"/>
<path d="M14.6944 14.1569L13.0227 16.2466C10.4335 14.725 8.27574 12.5674 6.75387 9.97833L8.84363 8.30662C9.0885 8.11052 9.26155 7.83886 9.33576 7.53405C9.40998 7.22924 9.38118 6.90844 9.25386 6.62172L7.34871 2.33231C7.21217 2.02458 6.97075 1.77536 6.66751 1.62911C6.36427 1.48285 6.01894 1.44908 5.69311 1.53382L2.06741 2.47443C1.72903 2.56284 1.43485 2.7723 1.2406 3.06313C1.04635 3.35396 0.965546 3.70594 1.01349 4.05237C1.64987 8.58384 3.7442 12.785 6.97987 16.0206C10.2155 19.2563 14.4167 21.3506 18.9481 21.987C19.2945 22.0348 19.6464 21.954 19.9371 21.7597C20.2278 21.5655 20.4372 21.2714 20.5256 20.9331L21.4662 17.3069C21.5508 16.9811 21.517 16.6359 21.3708 16.3328C21.2247 16.0296 20.9757 15.7881 20.6682 15.6513L16.3793 13.7466C16.0926 13.6192 15.7717 13.5904 15.4669 13.6646C15.1621 13.7388 14.8904 13.9119 14.6944 14.1569V14.1569Z" stroke="white" stroke-width="2" stroke-miterlimit="10" stroke-linecap="round"/>
</svg>
