<svg width="14" height="19" viewBox="0 0 14 19" fill="none" xmlns="http://www.w3.org/2000/svg">
<path d="M11.8124 4.0917C11.8124 3.71583 11.7009 3.34841 11.4921 3.03588C11.2833 2.72336 10.9865 2.47978 10.6392 2.33594C10.292 2.19211 9.90989 2.15447 9.54124 2.2278C9.1726 2.30113 8.83398 2.48212 8.5682 2.7479C8.30242 3.01368 8.12143 3.3523 8.0481 3.72094C7.97477 4.08959 8.01241 4.4717 8.15624 4.81895C8.30008 5.16621 8.54366 5.46301 8.85618 5.67183C9.1687 5.88065 9.53613 5.99211 9.91199 5.99211C10.4157 5.99113 10.8985 5.7906 11.2547 5.43441C11.6109 5.07823 11.8114 4.59542 11.8124 4.0917ZM8.98066 4.0917C8.98102 3.90371 9.03711 3.72005 9.14183 3.56394C9.24655 3.40783 9.39521 3.28627 9.569 3.21462C9.7428 3.14298 9.93394 3.12447 10.1183 3.16143C10.3026 3.1984 10.4718 3.28917 10.6045 3.42229C10.7372 3.55541 10.8275 3.72489 10.864 3.90931C10.9004 4.09373 10.8813 4.28481 10.8092 4.4584C10.737 4.63199 10.615 4.78029 10.4586 4.88456C10.3022 4.98883 10.1184 5.04438 9.9304 5.0442C9.80507 5.04556 9.68073 5.02184 9.5647 4.97442C9.44868 4.927 9.34331 4.85684 9.25481 4.76808C9.16631 4.67933 9.09646 4.57376 9.04938 4.45759C9.00229 4.34143 8.97893 4.21702 8.98066 4.0917Z" fill="black"/>
<path d="M9.9111 11.6178C10.1433 11.6196 10.3717 11.5594 10.5728 11.4434C10.7739 11.3274 10.9404 11.1598 11.055 10.958C12.3931 8.63053 14 5.54662 14 4.09256C14 3.00714 13.5688 1.96618 12.8013 1.19868C12.0338 0.431179 10.9928 0 9.90742 0C8.82201 0 7.78105 0.431179 7.01355 1.19868C6.24605 1.96618 5.81487 3.00714 5.81487 4.09256C5.81487 5.54754 7.42446 8.63145 8.75981 10.958C8.8788 11.1576 9.04726 11.3233 9.24893 11.4389C9.4506 11.5544 9.67866 11.6161 9.9111 11.6178ZM9.9111 0.950665C10.7434 0.953817 11.5407 1.28585 12.1293 1.87438C12.7178 2.46292 13.0498 3.26024 13.053 4.09256C13.053 5.04322 12.025 7.37065 10.2212 10.4932C10.1921 10.5493 10.1472 10.5957 10.0922 10.6268C10.0371 10.6578 9.97419 10.6722 9.9111 10.6681C9.84884 10.6675 9.78773 10.6512 9.73349 10.6206C9.67925 10.59 9.63365 10.5462 9.60096 10.4932C7.79718 7.38998 6.76921 5.04322 6.76921 4.09256C6.77236 3.26024 7.1044 2.46292 7.69293 1.87438C8.28147 1.28585 9.07879 0.953817 9.9111 0.950665Z" fill="black"/>
<path d="M10.8425 13.0525H2.67668C2.22581 13.0421 1.79692 12.8557 1.48172 12.5331C1.16653 12.2106 0.990064 11.7775 0.990064 11.3265C0.990064 10.8755 1.16653 10.4424 1.48172 10.1199C1.79692 9.79732 2.22581 9.6109 2.67668 9.60049H5.23694C5.36557 9.60049 5.48893 9.54939 5.57989 9.45843C5.67084 9.36748 5.72194 9.24412 5.72194 9.11549C5.72194 8.98686 5.67084 8.8635 5.57989 8.77254C5.48893 8.68159 5.36557 8.63049 5.23694 8.63049H2.67668C1.96678 8.63049 1.28596 8.9125 0.783982 9.41447C0.282007 9.91645 0 10.5973 0 11.3072C0 12.0171 0.282007 12.6979 0.783982 13.1999C1.28596 13.7018 1.96678 13.9839 2.67668 13.9839H10.8415C11.2924 13.9943 11.7213 14.1807 12.0365 14.5032C12.3517 14.8258 12.5282 15.2589 12.5282 15.7099C12.5282 16.1609 12.3517 16.5939 12.0365 16.9165C11.7213 17.2391 11.2924 17.4255 10.8415 17.4359H4.15099C4.02237 17.4359 3.89901 17.487 3.80805 17.5779C3.7171 17.6689 3.666 17.7923 3.666 17.9209C3.666 18.0495 3.7171 18.1729 3.80805 18.2638C3.89901 18.3548 4.02237 18.4059 4.15099 18.4059H10.8425C11.5524 18.4059 12.2332 18.1239 12.7352 17.6219C13.2371 17.1199 13.5191 16.4391 13.5191 15.7292C13.5191 15.0193 13.2371 14.3385 12.7352 13.8365C12.2332 13.3345 11.5524 13.0525 10.8425 13.0525Z" fill="black"/>
</svg>
