<svg width="16" height="16" viewBox="0 0 16 16" fill="none" xmlns="http://www.w3.org/2000/svg">
<path d="M12.3279 7.68262C12.3279 7.37293 12.2922 7.07515 12.2207 6.78929H15.3652V12.9354C15.3652 13.6024 15.133 14.1741 14.6684 14.6506C14.2039 15.127 13.6381 15.3652 12.9711 15.3652H2.39412C1.7271 15.3652 1.16133 15.127 0.696796 14.6506C0.232265 14.1741 0 13.6024 0 12.9354V6.78929H3.10878C3.06114 7.17044 3.03731 7.46822 3.03731 7.68262C3.03731 8.94519 3.48993 10.035 4.39517 10.9522C5.30041 11.8693 6.39623 12.3279 7.68262 12.3279C8.94519 12.3279 10.035 11.8693 10.9522 10.9522C11.8693 10.035 12.3279 8.94519 12.3279 7.68262V7.68262ZM12.9711 -4.76837e-07C13.6381 -4.76837e-07 14.2039 0.232265 14.6684 0.696795C15.133 1.16133 15.3652 1.7271 15.3652 2.39412V5.00263H11.4703C10.5413 3.69242 9.2787 3.03731 7.68262 3.03731C6.03889 3.03731 4.77632 3.69242 3.89491 5.00263H0V2.39412C0 1.7271 0.232265 1.16133 0.696796 0.696795C1.16133 0.232265 1.7271 -4.76837e-07 2.39412 -4.76837e-07H12.9711V-4.76837e-07ZM14.1146 2.96585V1.67946C14.1146 1.39359 13.9716 1.25066 13.6858 1.25066H12.3994C12.1135 1.25066 11.9706 1.39359 11.9706 1.67946V2.96585C11.9706 3.06114 12.0123 3.15642 12.0957 3.25171C12.179 3.347 12.2803 3.39464 12.3994 3.39464H13.6858C13.9716 3.39464 14.1146 3.25171 14.1146 2.96585V2.96585ZM10.5413 7.68262C10.5413 8.46875 10.2614 9.14172 9.70154 9.70154C9.14172 10.2614 8.46875 10.5413 7.68262 10.5413C6.89649 10.5413 6.22352 10.2614 5.6637 9.70154C5.10388 9.14172 4.82397 8.46875 4.82397 7.68262C4.82397 6.87267 5.10388 6.19374 5.6637 5.64583C6.22352 5.09792 6.89649 4.82397 7.68262 4.82397C8.46875 4.82397 9.14172 5.09792 9.70154 5.64583C10.2614 6.19374 10.5413 6.87267 10.5413 7.68262V7.68262Z" fill="white"/>
</svg>
