<svg width="16" height="17" viewBox="0 0 16 17" fill="none" xmlns="http://www.w3.org/2000/svg">
<path d="M16 16.3652H12.4444V10.3652C12.4444 9.42301 11.3867 8.64079 10.4444 8.64079C9.50222 8.64079 8.88889 9.42301 8.88889 10.3652V16.3652H5.33333V5.69857H8.88889V7.47635C9.47556 6.52523 10.9867 5.9119 12 5.9119C14.2222 5.9119 16 7.72523 16 9.92079V16.3652ZM3.55556 16.3652H0V5.69857H3.55556V16.3652ZM1.77778 0.365234C2.75556 0.365234 3.55556 1.16523 3.55556 2.14301C3.55556 3.12079 2.75556 3.92079 1.77778 3.92079C0.8 3.92079 0 3.12079 0 2.14301C0 1.16523 0.8 0.365234 1.77778 0.365234Z" fill="white"/>
</svg>
