<svg width="14" height="14" viewBox="0 0 14 14" fill="none" xmlns="http://www.w3.org/2000/svg">
<path d="M7.00005 12.2C9.87193 12.2 12.2 9.87193 12.2 7.00005C12.2 4.12817 9.87193 1.80005 7.00005 1.80005C4.12817 1.80005 1.80005 4.12817 1.80005 7.00005C1.80005 9.87193 4.12817 12.2 7.00005 12.2Z" stroke="white" stroke-miterlimit="10" stroke-linecap="square"/>
<path d="M7 1V3" stroke="white" stroke-miterlimit="10" stroke-linecap="square"/>
<path d="M13 7H11" stroke="white" stroke-miterlimit="10" stroke-linecap="square"/>
<path d="M7 13V11" stroke="white" stroke-miterlimit="10" stroke-linecap="square"/>
<path d="M1 7H3" stroke="white" stroke-miterlimit="10" stroke-linecap="square"/>
<path d="M7.00005 8.20005C7.66279 8.20005 8.20005 7.66279 8.20005 7.00005C8.20005 6.33731 7.66279 5.80005 7.00005 5.80005C6.33731 5.80005 5.80005 6.33731 5.80005 7.00005C5.80005 7.66279 6.33731 8.20005 7.00005 8.20005Z" stroke="white" stroke-miterlimit="10" stroke-linecap="square"/>
</svg>
