<svg width="20" height="27" viewBox="0 0 20 27" fill="none" xmlns="http://www.w3.org/2000/svg">
<path d="M0.986816 10.1553C0.986816 8.8712 1.23446 7.64217 1.72974 6.46816C2.18833 5.3492 2.86705 4.33112 3.7659 3.41393C4.62805 2.55177 5.63696 1.88223 6.79262 1.40529C7.94827 0.910006 9.1773 0.662367 10.4797 0.662367C11.8005 0.662367 13.0387 0.910006 14.1943 1.40529C15.3316 1.88223 16.3405 2.55177 17.221 3.41393C18.1015 4.31277 18.7803 5.33085 19.2572 6.46816C19.7525 7.64217 20.0001 8.8712 20.0001 10.1553C20.0001 11.4393 19.7525 12.6684 19.2572 13.8424C18.927 14.5761 18.5968 15.1723 18.2666 15.6309L11.9656 25.1788C11.562 25.8208 11.0759 26.1418 10.5072 26.1418C9.93857 26.1418 9.43412 25.8208 8.99387 25.1788L2.7203 15.6309C2.31674 15.0622 1.98655 14.466 1.72974 13.8424C1.23446 12.6684 0.986816 11.4393 0.986816 10.1553H0.986816ZM6.95771 10.1553C6.95771 11.1275 7.29707 11.9621 7.97579 12.6592C8.67285 13.3562 9.50749 13.7048 10.4797 13.7048C11.4703 13.7048 12.3049 13.3562 12.9836 12.6592C13.6807 11.9805 14.0292 11.1458 14.0292 10.1553C14.0292 9.18304 13.6807 8.3484 12.9836 7.65134C12.3049 6.95428 11.4703 6.60574 10.4797 6.60574C9.50749 6.60574 8.67285 6.95428 7.97579 7.65134C7.29707 8.3484 6.95771 9.18304 6.95771 10.1553Z" fill="white"/>
</svg>
