<svg width="14" height="14" viewBox="0 0 14 14" fill="none" xmlns="http://www.w3.org/2000/svg">
<path d="M6.99999 12.2C9.87187 12.2 12.2 9.87193 12.2 7.00005C12.2 4.12817 9.87187 1.80005 6.99999 1.80005C4.12811 1.80005 1.79999 4.12817 1.79999 7.00005C1.79999 9.87193 4.12811 12.2 6.99999 12.2Z" stroke="#808080" stroke-miterlimit="10" stroke-linecap="square"/>
<path d="M7 1V3" stroke="#808080" stroke-miterlimit="10" stroke-linecap="square"/>
<path d="M13 7H11" stroke="#808080" stroke-miterlimit="10" stroke-linecap="square"/>
<path d="M7 13V11" stroke="#808080" stroke-miterlimit="10" stroke-linecap="square"/>
<path d="M1 7H3" stroke="#808080" stroke-miterlimit="10" stroke-linecap="square"/>
<path d="M6.99999 8.20005C7.66273 8.20005 8.19999 7.66279 8.19999 7.00005C8.19999 6.33731 7.66273 5.80005 6.99999 5.80005C6.33725 5.80005 5.79999 6.33731 5.79999 7.00005C5.79999 7.66279 6.33725 8.20005 6.99999 8.20005Z" stroke="#808080" stroke-miterlimit="10" stroke-linecap="square"/>
</svg>
