<svg width="30" height="30" viewBox="0 0 30 30" fill="none" xmlns="http://www.w3.org/2000/svg">
<path d="M29.375 14.6875C29.375 11.7826 28.5136 8.94291 26.8997 6.52757C25.2858 4.11222 22.9919 2.22969 20.3082 1.11803C17.6244 0.00636399 14.6712 -0.284498 11.8221 0.282223C8.97302 0.848943 6.35596 2.24779 4.30187 4.30187C2.24779 6.35596 0.848943 8.97302 0.282223 11.8221C-0.284498 14.6712 0.00636399 17.6244 1.11803 20.3082C2.22969 22.9919 4.11222 25.2858 6.52757 26.8997C8.94291 28.5136 11.7826 29.375 14.6875 29.375C18.5815 29.3706 22.3148 27.8217 25.0683 25.0683C27.8217 22.3148 29.3706 18.5815 29.375 14.6875ZM12.383 20.9086C12.2912 20.8168 12.2397 20.6923 12.2397 20.5625C12.2397 20.4327 12.2912 20.3082 12.383 20.2164L17.9119 14.6875L12.383 9.15864C12.2939 9.0663 12.2445 8.94263 12.2456 8.81426C12.2467 8.6859 12.2982 8.5631 12.389 8.47233C12.4798 8.38156 12.6026 8.33007 12.7309 8.32895C12.8593 8.32784 12.983 8.37719 13.0753 8.46637L18.9503 14.3414C19.0421 14.4332 19.0936 14.5577 19.0936 14.6875C19.0936 14.8173 19.0421 14.9418 18.9503 15.0336L13.0753 20.9086C12.9835 21.0004 12.859 21.052 12.7292 21.052C12.5993 21.052 12.4748 21.0004 12.383 20.9086Z" fill="black"/>
</svg>
