<svg width="20" height="20" viewBox="0 0 20 20" fill="none" xmlns="http://www.w3.org/2000/svg">
<path d="M12.8548 5.65674L7.14648 8.51007" stroke="#212121" stroke-linecap="round" stroke-linejoin="round"/>
<path d="M12.8548 14.3433L7.14648 11.49" stroke="#212121" stroke-linecap="round" stroke-linejoin="round"/>
<path d="M15.8333 7.50004C17.6743 7.50004 19.1667 6.00766 19.1667 4.16671C19.1667 2.32576 17.6743 0.833374 15.8333 0.833374C13.9924 0.833374 12.5 2.32576 12.5 4.16671C12.5 6.00766 13.9924 7.50004 15.8333 7.50004Z" stroke="#212121" stroke-linecap="round" stroke-linejoin="round"/>
<path d="M15.8333 19.1667C17.6743 19.1667 19.1667 17.6743 19.1667 15.8333C19.1667 13.9924 17.6743 12.5 15.8333 12.5C13.9924 12.5 12.5 13.9924 12.5 15.8333C12.5 17.6743 13.9924 19.1667 15.8333 19.1667Z" stroke="#212121" stroke-linecap="round" stroke-linejoin="round"/>
<path d="M4.16683 13.3334C6.00778 13.3334 7.50016 11.841 7.50016 10.0001C7.50016 8.15913 6.00778 6.66675 4.16683 6.66675C2.32588 6.66675 0.833496 8.15913 0.833496 10.0001C0.833496 11.841 2.32588 13.3334 4.16683 13.3334Z" stroke="#212121" stroke-linecap="round" stroke-linejoin="round"/>
</svg>
