<svg width="40" height="40" viewBox="0 0 40 40" fill="none" xmlns="http://www.w3.org/2000/svg">
<path d="M33.1111 22.8889L25.9999 27.7778L9.11106 4H2.22217V6.44444H7.77772L24.2222 29.5556C22.6666 30 21.3333 31.5556 21.3333 33.5556C21.3333 35.7778 23.1111 37.7778 25.5555 37.7778C27.9999 37.7778 29.7777 36 29.7777 33.5556C29.7777 32 28.8888 30.4444 27.3333 29.7778L34.4444 25.1111L33.1111 22.8889ZM25.5555 35.1111C24.6666 35.1111 23.7777 34.2222 23.7777 33.3333C23.7777 32.4444 24.6666 31.5556 25.5555 31.5556C26.4444 31.5556 27.3333 32.4444 27.3333 33.3333C27.3333 34.2222 26.4444 35.1111 25.5555 35.1111Z" fill="white"/>
<path d="M37.7777 16.6667L29.7777 5.55554L18.4443 13.3333L26.2221 24.4444L37.7777 16.6667ZM29.3332 8.66665L34.4443 16L26.8888 21.1111L21.7777 13.7778L29.3332 8.66665Z" fill="white"/>
</svg>
