<svg width="19" height="16" viewBox="0 0 19 16" fill="none" xmlns="http://www.w3.org/2000/svg">
<path d="M19 1.83736C18.4668 2.61552 17.8184 3.2856 17.0546 3.8476C17.0546 3.96288 17.0546 4.1286 17.0546 4.34476C17.0546 5.39671 16.9033 6.44146 16.6007 7.479C16.2981 8.51654 15.8369 9.51806 15.2173 10.4835C14.5976 11.449 13.8555 12.292 12.9909 13.0126C12.1263 13.7331 11.0887 14.3239 9.87827 14.785C8.6678 15.2462 7.36367 15.4623 5.96587 15.4335C3.78991 15.4335 1.80129 14.8499 0 13.6826C0.273796 13.7115 0.583618 13.7259 0.929465 13.7259C2.74516 13.7259 4.35912 13.1711 5.77133 12.0615C4.92112 12.0471 4.16458 11.7877 3.50171 11.2833C2.83883 10.779 2.3777 10.1377 2.11832 9.35954C2.39211 9.40278 2.63709 9.42439 2.85324 9.42439C3.19909 9.42439 3.54494 9.38116 3.89079 9.2947C2.98294 9.10736 2.2336 8.66064 1.64278 7.95454C1.05195 7.24843 0.756542 6.41984 0.756542 5.46876V5.42553C1.30413 5.72815 1.89496 5.89386 2.52901 5.92268C1.99583 5.56243 1.57072 5.1013 1.2537 4.53929C0.93667 3.97729 0.778157 3.35765 0.778157 2.68036C0.778157 1.97426 0.958286 1.31859 1.31854 0.713355C2.29845 1.90941 3.48009 2.8677 4.86348 3.58821C6.24687 4.30873 7.74554 4.70501 9.3595 4.77706C9.28745 4.47445 9.25142 4.17904 9.25142 3.89083C9.25142 2.81006 9.63329 1.895 10.397 1.14567C11.1608 0.396329 12.0758 0.0144555 13.1422 4.5211e-05C14.2806 4.5211e-05 15.2317 0.410739 15.9954 1.23213C16.8745 1.0592 17.7031 0.742176 18.4812 0.281046C18.1786 1.20331 17.6022 1.92382 16.752 2.44259C17.5013 2.35613 18.2507 2.15439 19 1.83736V1.83736Z" fill="white"/>
</svg>
