<svg width="41" height="42" viewBox="0 0 41 42" fill="none" xmlns="http://www.w3.org/2000/svg">
<path d="M15.9445 19.8333C20.2723 19.8333 23.689 16.3333 23.689 12.1333C23.689 7.93335 20.2723 4.20001 15.9445 4.20001C11.6167 4.20001 8.20007 7.70001 8.20007 12.1333C8.20007 16.3333 11.6167 19.8333 15.9445 19.8333ZM15.9445 6.76668C18.9056 6.76668 21.1834 9.10001 21.1834 12.1333C21.1834 15.1667 18.9056 17.5 15.9445 17.5C12.9834 17.5 10.7056 15.1667 10.7056 12.1333C10.7056 9.10001 12.9834 6.76668 15.9445 6.76668Z" fill="white"/>
<path d="M9.33894 21.7C13.2112 24.5 18.6778 24.5 22.3223 21.7C24.8278 23.5667 25.9667 26.6 26.4223 28.4667L28.2445 26.6C27.3334 24.2667 25.7389 21.2334 22.7778 19.3667L22.3223 18.4333L21.6389 19.1333C18.4501 21.9333 13.4389 21.9333 10.2501 19.1333L9.33894 18.4333L8.65561 18.9C3.18894 22.6334 2.50561 29.6334 2.27783 29.8667V31.5H14.3501L16.6278 28.9333H5.01117C5.46672 27.0667 6.60561 23.8 9.33894 21.7Z" fill="white"/>
<path d="M37.1278 21.2333L24.1445 34.3L19.5889 29.6333L17.7667 31.5L24.1445 37.8L38.7223 23.1L37.1278 21.2333Z" fill="white"/>
</svg>
