<svg width="32" height="32" viewBox="0 0 32 32" fill="none" xmlns="http://www.w3.org/2000/svg">
<path d="M15.61 18.67C18.7083 18.67 21.22 16.1583 21.22 13.06C21.22 9.96163 18.7083 7.44995 15.61 7.44995C12.5117 7.44995 10 9.96163 10 13.06C10 16.1583 12.5117 18.67 15.61 18.67Z" stroke="#444444" stroke-width="2" stroke-miterlimit="10"/>
<path d="M9.97998 19.99C11.5966 21.2259 13.575 21.8955 15.61 21.8955C17.6449 21.8955 19.6233 21.2259 21.24 19.99" stroke="#444444" stroke-width="2" stroke-miterlimit="10"/>
<path d="M5.37988 26.05C6.18812 23.5674 7.81297 21.4314 9.98988 19.99C11.6048 21.2211 13.5792 21.8878 15.6099 21.8878C17.6405 21.8878 19.615 21.2211 21.2299 19.99C23.4068 21.4314 25.0316 23.5674 25.8399 26.05" stroke="#444444" stroke-width="2" stroke-miterlimit="10"/>
<path d="M15.61 30.22C23.6789 30.22 30.22 23.6789 30.22 15.61C30.22 7.54112 23.6789 1 15.61 1C7.54112 1 1 7.54112 1 15.61C1 23.6789 7.54112 30.22 15.61 30.22Z" stroke="#444444" stroke-width="2" stroke-miterlimit="10"/>
</svg>
