<svg width="18" height="18" viewBox="0 0 18 18" fill="none" xmlns="http://www.w3.org/2000/svg">
<path d="M6.1519 5.53052C7.10472 3.43156 7.89183 1.69163 8.51323 0.31073C8.59609 0.103596 8.7618 2.86102e-05 9.01036 2.86102e-05C9.25892 2.86102e-05 9.41772 0.103596 9.48677 0.31073L11.8481 5.53052C14.1128 5.77908 16.0046 5.98622 17.5236 6.15193C17.7307 6.19335 17.8757 6.31763 17.9586 6.52477C18.0414 6.7319 18 6.91832 17.8343 7.08403L13.6087 10.9574C14.0644 13.1807 14.4442 15.0449 14.748 16.5501C14.7894 16.7572 14.7204 16.9298 14.5409 17.0679C14.3613 17.206 14.1749 17.2198 13.9816 17.1093L9.01036 14.2923C7.02186 15.4108 5.36479 16.3499 4.03913 17.1093C3.83199 17.2336 3.63866 17.2198 3.45915 17.0679C3.27963 16.916 3.20368 16.7434 3.2313 16.5501L4.39125 10.9574C2.70656 9.41084 1.29804 8.11971 0.165708 7.08403C0 6.93213 -0.0414269 6.75262 0.0414269 6.54548C0.124281 6.33835 0.269275 6.20716 0.47641 6.15193L6.1519 5.53052Z" fill="#E8B23D"/>
</svg>
