<svg width="22" height="17" viewBox="0 0 22 17" fill="none" xmlns="http://www.w3.org/2000/svg">
<path d="M8.73438 11.4601L14.6734 8.40256L8.73438 5.30108V11.4601V11.4601ZM11 0.879814C12.3784 0.879814 13.7055 0.901811 14.9813 0.945803C16.2571 0.989796 17.1956 1.02646 17.7969 1.05578L18.6987 1.09978C18.6987 1.09978 18.7647 1.10711 18.8967 1.12177C19.0287 1.13644 19.124 1.1511 19.1826 1.16577C19.2413 1.18043 19.3366 1.1951 19.4686 1.20976C19.6006 1.22442 19.7179 1.26108 19.8205 1.31974C19.9232 1.3784 20.0405 1.42972 20.1725 1.47372C20.3044 1.51771 20.4291 1.59836 20.5464 1.71568C20.6637 1.83299 20.781 1.94297 20.8984 2.04562C20.957 2.08961 21.023 2.16293 21.0963 2.26558C21.1696 2.36823 21.287 2.61019 21.4483 2.99146C21.6096 3.37273 21.7195 3.78333 21.7782 4.22326C21.8369 4.75117 21.8882 5.30841 21.9322 5.89498C21.9762 6.48155 21.9982 6.9508 21.9982 7.30274V9.45838C22.0128 10.6462 21.9395 11.834 21.7782 13.0218C21.7195 13.4617 21.6169 13.865 21.4703 14.2316C21.3236 14.5982 21.1916 14.8548 21.0743 15.0015L20.8984 15.1994C20.7957 15.3167 20.6784 15.4267 20.5464 15.5294C20.4144 15.632 20.2898 15.7053 20.1725 15.7493C20.0552 15.7933 19.9378 15.8447 19.8205 15.9033C19.7032 15.962 19.5859 15.9986 19.4686 16.0133C19.3513 16.028 19.256 16.0426 19.1826 16.0573C19.1093 16.0719 19.014 16.0866 18.8967 16.1013C18.7794 16.1159 18.7134 16.1233 18.6987 16.1233C16.6457 16.2846 14.0795 16.3652 11 16.3652C9.31361 16.3359 7.83986 16.3066 6.57874 16.2772C5.31761 16.2479 4.50375 16.2186 4.13714 16.1893L3.52125 16.1233L3.08132 16.0793C2.78804 16.0353 2.56807 15.9986 2.42143 15.9693C2.27479 15.94 2.06216 15.852 1.78354 15.7053C1.50492 15.5587 1.27762 15.3901 1.10165 15.1994C1.04299 15.1554 0.977004 15.0821 0.903683 14.9795C0.830362 14.8768 0.713048 14.6349 0.551741 14.2536C0.390435 13.8723 0.280453 13.4617 0.221796 13.0218C0.163139 12.4939 0.111815 11.9366 0.067822 11.3501C0.0238294 10.7635 0.00183303 10.2942 0.00183303 9.9423V7.78666C-0.0128312 6.59886 0.0604899 5.41106 0.221796 4.22326C0.280453 3.76867 0.383103 3.3654 0.529745 3.01346C0.676387 2.66152 0.808365 2.40489 0.925679 2.24359L1.10165 2.04562C1.21896 1.91364 1.33628 1.80366 1.45359 1.71568C1.5709 1.62769 1.69555 1.54704 1.82753 1.47372C1.95951 1.40039 2.07682 1.34907 2.17947 1.31974C2.28212 1.29041 2.39943 1.25375 2.53141 1.20976C2.66339 1.16577 2.75871 1.1511 2.81736 1.16577C2.87602 1.18043 2.97134 1.16577 3.10332 1.12177C3.23529 1.07778 3.30128 1.07045 3.30128 1.09978C5.35427 0.953136 7.92051 0.879814 11 0.879814V0.879814Z" fill="white"/>
</svg>
